<svg width="757" height="206" viewBox="0 0 757 206" fill="none" xmlns="http://www.w3.org/2000/svg">
<path d="M309.8 102.58C306.68 99.46 302.72 96.34 297.92 93.22C293.12 90.1 288.2 87.4 283.16 85.12C278.24 82.72 273.92 81.22 270.2 80.62C269.36 80.38 268.52 80.26 267.68 80.26C266.84 80.26 266 80.26 265.16 80.26C261.44 80.26 258.38 80.92 255.98 82.24C253.58 83.56 252.38 85.24 252.38 87.28C252.38 89.2 253.58 91.12 255.98 93.04C258.38 94.84 261.98 96.94 266.78 99.34C271.7 101.74 277.1 104.44 282.98 107.44C288.86 110.32 294.68 113.5 300.44 116.98C306.2 120.46 311.24 124.12 315.56 127.96C319.88 131.8 322.76 135.88 324.2 140.2C325.28 143.2 325.82 146.02 325.82 148.66C325.82 155.62 322.28 161.14 315.2 165.22C308.12 169.18 297.62 171.16 283.7 171.16C272.78 171.16 262.64 168.16 253.28 162.16C243.92 156.16 236.18 148.42 230.06 138.94L231.5 137.14C238.94 142.9 246.86 147.46 255.26 150.82C263.66 154.06 271.88 155.68 279.92 155.68C285.32 155.68 289.52 154.96 292.52 153.52C295.64 152.08 297.2 150.28 297.2 148.12C297.2 147.64 297.08 147.04 296.84 146.32C295.64 142.96 292.76 139.72 288.2 136.6C283.64 133.36 278.24 130 272 126.52C265.88 122.92 259.58 118.96 253.1 114.64C246.74 110.2 241.04 105.16 236 99.52C233.24 96.16 231.86 92.74 231.86 89.26C231.86 85.42 233.24 81.76 236 78.28C238.76 74.8 242.66 71.98 247.7 69.82C252.74 67.54 258.62 66.4 265.34 66.4C273.5 66.4 281.24 67.06 288.56 68.38C295.88 69.7 302.42 71.44 308.18 73.6C314.06 75.64 318.68 77.92 322.04 80.44L309.8 102.58Z" fill="white"/>
<path d="M443.207 118.96C443.207 126.88 441.587 134.08 438.347 140.56C435.107 146.92 430.847 152.38 425.567 156.94C420.287 161.5 414.587 165.04 408.467 167.56C402.347 169.96 396.407 171.16 390.647 171.16C384.887 171.16 378.947 169.96 372.827 167.56C366.707 165.04 360.947 161.5 355.547 156.94C350.267 152.38 345.947 146.92 342.587 140.56C339.347 134.08 337.727 126.88 337.727 118.96C337.727 111.04 339.347 103.84 342.587 97.36C345.947 90.88 350.267 85.36 355.547 80.8C360.947 76.12 366.707 72.58 372.827 70.18C378.947 67.66 384.887 66.4 390.647 66.4C396.407 66.4 402.347 67.66 408.467 70.18C414.587 72.58 420.287 76.12 425.567 80.8C430.847 85.36 435.107 90.88 438.347 97.36C441.587 103.84 443.207 111.04 443.207 118.96ZM396.047 158.2C402.407 158.2 407.267 155.92 410.627 151.36C413.987 146.68 415.667 138.28 415.667 126.16C415.667 115.36 413.987 106.54 410.627 99.7C407.387 92.86 403.427 87.88 398.747 84.76C394.067 81.52 389.567 79.9 385.247 79.9C381.047 79.9 377.447 80.86 374.447 82.78C371.447 84.7 369.167 88 367.607 92.68C366.047 97.24 365.267 103.6 365.267 111.76C365.267 119.08 366.227 125.62 368.147 131.38C370.187 137.14 372.767 142.06 375.887 146.14C379.007 150.1 382.307 153.1 385.787 155.14C389.387 157.18 392.807 158.2 396.047 158.2Z" fill="white"/>
<path d="M467.706 169L462.846 28.6H495.066L490.206 169H467.706Z" fill="white"/>
<path d="M517.618 26.08L561.358 33.64L532.018 63.16L517.618 26.08ZM504.658 203.38C509.458 197.98 513.478 192.58 516.718 187.18C519.958 181.9 522.418 176.98 524.098 172.42C525.778 167.98 526.618 164.38 526.618 161.62V161.08L521.938 68.74H553.438L548.758 162.16C548.518 168.28 544.918 175.24 537.958 183.04C531.118 190.96 520.378 198.34 505.738 205.18L504.658 203.38Z" fill="white"/>
<path d="M677.682 154.6C672.162 159.76 667.302 163.84 663.102 166.84C658.902 169.84 655.122 171.34 651.762 171.34C649.122 171.34 646.722 170.32 644.562 168.28C642.522 166.12 640.602 162.7 638.802 158.02C635.082 161.26 630.522 164.02 625.122 166.3C619.722 168.46 613.902 169.9 607.662 170.62C605.742 170.86 603.882 171.04 602.082 171.16C600.282 171.28 598.542 171.34 596.862 171.34C579.942 171.34 571.482 165.28 571.482 153.16C571.482 151.72 571.602 150.22 571.842 148.66C572.082 147.1 572.442 145.42 572.922 143.62C574.002 139.66 576.162 136.12 579.402 133C582.762 129.76 586.782 126.88 591.462 124.36C596.142 121.72 600.942 119.32 605.862 117.16C610.782 114.88 615.342 112.78 619.542 110.86C623.862 108.82 627.342 106.84 629.982 104.92C632.742 103 634.122 101.08 634.122 99.16C634.122 93.88 633.462 90.34 632.142 88.54C630.822 86.62 628.302 85.66 624.582 85.66C621.942 85.66 617.862 85.9 612.342 86.38C606.822 86.86 600.762 87.58 594.162 88.54C587.562 89.5 581.262 90.76 575.262 92.32L574.362 90.52C577.602 87.4 581.742 84.4 586.782 81.52C591.942 78.64 597.402 76.06 603.162 73.78C609.042 71.5 614.862 69.7 620.622 68.38C626.382 67.06 631.602 66.4 636.282 66.4C643.722 66.4 649.242 67.18 652.842 68.74C656.562 70.18 659.022 73.12 660.222 77.56C661.542 81.88 662.202 88.42 662.202 97.18V142.72C662.202 147.04 662.562 150.16 663.282 152.08C664.122 153.88 665.982 154.78 668.862 154.78C669.822 154.78 670.962 154.66 672.282 154.42C673.722 154.18 675.282 153.88 676.962 153.52L677.682 154.6ZM635.562 114.82C632.922 117.1 629.382 119.56 624.942 122.2C620.622 124.72 616.422 127.48 612.342 130.48C608.262 133.36 605.262 136.6 603.342 140.2C601.662 143.56 600.822 146.5 600.822 149.02C600.822 151.42 601.542 153.4 602.982 154.96C604.542 156.52 606.702 157.3 609.462 157.3C610.062 157.3 610.662 157.3 611.262 157.3C611.982 157.18 612.642 157.06 613.242 156.94C615.642 156.34 618.402 155.5 621.522 154.42C624.762 153.34 627.762 152.08 630.522 150.64C633.402 149.2 635.442 147.76 636.642 146.32L635.562 114.82Z" fill="white"/>
<path d="M695.193 169L688.713 68.74H720.393L719.853 86.56C722.613 82.96 725.973 79.66 729.933 76.66C733.893 73.54 738.153 71.08 742.713 69.28C747.393 67.36 752.073 66.4 756.753 66.4V92.86C754.353 91.54 751.653 90.58 748.653 89.98C745.773 89.26 742.773 88.9 739.653 88.9C735.933 88.9 732.273 89.38 728.673 90.34C725.073 91.18 722.073 92.44 719.673 94.12L717.333 169H695.193Z" fill="white"/>
<path d="M0.00058148 170.933C0.00058148 167.62 2.68687 164.933 6.00058 164.933L41 168.896C46.0507 168.896 48.5107 159.074 45.328 155.152L1.34123 100.954C0.473539 99.8847 -2.42299e-05 98.5497 9.24047e-10 97.1727L0.000475895 70.1298C0.000534208 66.8161 2.68681 64.1299 6.00048 64.1299H89.689C93.9241 64.1299 96.8262 68.399 95.2683 72.3371L88.6142 89.1574C87.7086 91.4465 85.4967 92.9502 83.0349 92.9502H55.3671C50.1402 92.9502 47.4127 99.1691 50.9532 103.014L104.672 161.357C106.592 163.442 106.791 166.586 105.15 168.896L85.3447 196.776C84.2194 198.36 82.3965 199.301 80.4533 199.301H20.8632C19.0073 199.301 17.256 198.442 16.1196 196.975L1.257 177.786C0.442542 176.734 0.00058148 175.442 0.00058148 174.112V170.933Z" fill="white"/>
<path d="M129.557 70.1299C129.557 66.8162 132.243 64.1299 135.557 64.1299H165.421C168.735 64.1299 171.421 66.8162 171.421 70.1299V173.866C171.421 175.346 170.875 176.773 169.887 177.874L152.5 197.454C151.362 198.723 149.686 199.301 147.982 199.301H84.3709C82.0486 199.301 79.9348 197.961 78.9442 195.861L68.3944 173.493C66.5173 169.513 85.5997 170.933 90 170.933L123.557 164.933C126.871 164.933 129.557 162.247 129.557 158.933V70.1299Z" fill="white"/>
<path d="M8.92669 8.97638C8.92669 5.50924 11.8568 2.76374 15.3166 2.98905L156.872 12.2076C160.028 12.4131 162.482 15.0326 162.482 18.1949V37.9275C162.482 41.2412 159.796 43.9275 156.482 43.9275H14.9267C11.613 43.9275 8.92669 41.2412 8.92669 37.9275V8.97638Z" fill="white"/>
<path d="M153 196.301C153 201.547 122.331 205.801 84.5 205.801C46.6685 205.801 16 201.547 16 196.301C16 191.054 46.6685 186.801 84.5 186.801C122.331 186.801 153 191.054 153 196.301Z" fill="white"/>
<path d="M161 41.3008C161 46.5475 127.197 50.8008 85.5 50.8008C43.8025 50.8008 10.5 46.5475 10.5 41.3008C10.5 36.0541 43.8025 31.8008 85.5 31.8008C127.197 31.8008 161 36.0541 161 41.3008Z" fill="white"/>
<path d="M159.829 14.0326C159.695 16.2803 151.739 17.9683 137.709 18.7261C123.679 19.4838 104.72 19.2494 84.9946 18.0744C65.2693 16.8993 46.3892 14.8795 32.4987 12.4585C18.6081 10.0374 10.8421 7.41287 10.9055 5.16096C10.9689 2.90905 18.8564 1.2138 32.8367 0.447324C46.817 -0.319151 65.7477 -0.0942147 85.4732 1.07276C105.199 2.23973 124.107 4.25338 138.048 6.67168C151.989 9.08999 159.823 11.7153 159.831 13.9714L85.3679 9.58151L159.829 14.0326Z" fill="white"/>
</svg>
