<svg width="757" height="209" viewBox="0 0 757 209" fill="none" xmlns="http://www.w3.org/2000/svg">
<path d="M309.8 105.58C306.68 102.46 302.72 99.34 297.92 96.22C293.12 93.1 288.2 90.4 283.16 88.12C278.24 85.72 273.92 84.22 270.2 83.62C269.36 83.38 268.52 83.26 267.68 83.26C266.84 83.26 266 83.26 265.16 83.26C261.44 83.26 258.38 83.92 255.98 85.24C253.58 86.56 252.38 88.24 252.38 90.28C252.38 92.2 253.58 94.12 255.98 96.04C258.38 97.84 261.98 99.94 266.78 102.34C271.7 104.74 277.1 107.44 282.98 110.44C288.86 113.32 294.68 116.5 300.44 119.98C306.2 123.46 311.24 127.12 315.56 130.96C319.88 134.8 322.76 138.88 324.2 143.2C325.28 146.2 325.82 149.02 325.82 151.66C325.82 158.62 322.28 164.14 315.2 168.22C308.12 172.18 297.62 174.16 283.7 174.16C272.78 174.16 262.64 171.16 253.28 165.16C243.92 159.16 236.18 151.42 230.06 141.94L231.5 140.14C238.94 145.9 246.86 150.46 255.26 153.82C263.66 157.06 271.88 158.68 279.92 158.68C285.32 158.68 289.52 157.96 292.52 156.52C295.64 155.08 297.2 153.28 297.2 151.12C297.2 150.64 297.08 150.04 296.84 149.32C295.64 145.96 292.76 142.72 288.2 139.6C283.64 136.36 278.24 133 272 129.52C265.88 125.92 259.58 121.96 253.1 117.64C246.74 113.2 241.04 108.16 236 102.52C233.24 99.16 231.86 95.74 231.86 92.26C231.86 88.42 233.24 84.76 236 81.28C238.76 77.8 242.66 74.98 247.7 72.82C252.74 70.54 258.62 69.4 265.34 69.4C273.5 69.4 281.24 70.06 288.56 71.38C295.88 72.7 302.42 74.44 308.18 76.6C314.06 78.64 318.68 80.92 322.04 83.44L309.8 105.58Z" fill="white"/>
<path d="M443.207 121.96C443.207 129.88 441.587 137.08 438.347 143.56C435.107 149.92 430.847 155.38 425.567 159.94C420.287 164.5 414.587 168.04 408.467 170.56C402.347 172.96 396.407 174.16 390.647 174.16C384.887 174.16 378.947 172.96 372.827 170.56C366.707 168.04 360.947 164.5 355.547 159.94C350.267 155.38 345.947 149.92 342.587 143.56C339.347 137.08 337.727 129.88 337.727 121.96C337.727 114.04 339.347 106.84 342.587 100.36C345.947 93.88 350.267 88.36 355.547 83.8C360.947 79.12 366.707 75.58 372.827 73.18C378.947 70.66 384.887 69.4 390.647 69.4C396.407 69.4 402.347 70.66 408.467 73.18C414.587 75.58 420.287 79.12 425.567 83.8C430.847 88.36 435.107 93.88 438.347 100.36C441.587 106.84 443.207 114.04 443.207 121.96ZM396.047 161.2C402.407 161.2 407.267 158.92 410.627 154.36C413.987 149.68 415.667 141.28 415.667 129.16C415.667 118.36 413.987 109.54 410.627 102.7C407.387 95.86 403.427 90.88 398.747 87.76C394.067 84.52 389.567 82.9 385.247 82.9C381.047 82.9 377.447 83.86 374.447 85.78C371.447 87.7 369.167 91 367.607 95.68C366.047 100.24 365.267 106.6 365.267 114.76C365.267 122.08 366.227 128.62 368.147 134.38C370.187 140.14 372.767 145.06 375.887 149.14C379.007 153.1 382.307 156.1 385.787 158.14C389.387 160.18 392.807 161.2 396.047 161.2Z" fill="white"/>
<path d="M467.706 172L462.846 31.6H495.066L490.206 172H467.706Z" fill="white"/>
<path d="M517.618 29.08L561.358 36.64L532.018 66.16L517.618 29.08ZM504.658 206.38C509.458 200.98 513.478 195.58 516.718 190.18C519.958 184.9 522.418 179.98 524.098 175.42C525.778 170.98 526.618 167.38 526.618 164.62V164.08L521.938 71.74H553.438L548.758 165.16C548.518 171.28 544.918 178.24 537.958 186.04C531.118 193.96 520.378 201.34 505.738 208.18L504.658 206.38Z" fill="white"/>
<path d="M677.682 157.6C672.162 162.76 667.302 166.84 663.102 169.84C658.902 172.84 655.122 174.34 651.762 174.34C649.122 174.34 646.722 173.32 644.562 171.28C642.522 169.12 640.602 165.7 638.802 161.02C635.082 164.26 630.522 167.02 625.122 169.3C619.722 171.46 613.902 172.9 607.662 173.62C605.742 173.86 603.882 174.04 602.082 174.16C600.282 174.28 598.542 174.34 596.862 174.34C579.942 174.34 571.482 168.28 571.482 156.16C571.482 154.72 571.602 153.22 571.842 151.66C572.082 150.1 572.442 148.42 572.922 146.62C574.002 142.66 576.162 139.12 579.402 136C582.762 132.76 586.782 129.88 591.462 127.36C596.142 124.72 600.942 122.32 605.862 120.16C610.782 117.88 615.342 115.78 619.542 113.86C623.862 111.82 627.342 109.84 629.982 107.92C632.742 106 634.122 104.08 634.122 102.16C634.122 96.88 633.462 93.34 632.142 91.54C630.822 89.62 628.302 88.66 624.582 88.66C621.942 88.66 617.862 88.9 612.342 89.38C606.822 89.86 600.762 90.58 594.162 91.54C587.562 92.5 581.262 93.76 575.262 95.32L574.362 93.52C577.602 90.4 581.742 87.4 586.782 84.52C591.942 81.64 597.402 79.06 603.162 76.78C609.042 74.5 614.862 72.7 620.622 71.38C626.382 70.06 631.602 69.4 636.282 69.4C643.722 69.4 649.242 70.18 652.842 71.74C656.562 73.18 659.022 76.12 660.222 80.56C661.542 84.88 662.202 91.42 662.202 100.18V145.72C662.202 150.04 662.562 153.16 663.282 155.08C664.122 156.88 665.982 157.78 668.862 157.78C669.822 157.78 670.962 157.66 672.282 157.42C673.722 157.18 675.282 156.88 676.962 156.52L677.682 157.6ZM635.562 117.82C632.922 120.1 629.382 122.56 624.942 125.2C620.622 127.72 616.422 130.48 612.342 133.48C608.262 136.36 605.262 139.6 603.342 143.2C601.662 146.56 600.822 149.5 600.822 152.02C600.822 154.42 601.542 156.4 602.982 157.96C604.542 159.52 606.702 160.3 609.462 160.3C610.062 160.3 610.662 160.3 611.262 160.3C611.982 160.18 612.642 160.06 613.242 159.94C615.642 159.34 618.402 158.5 621.522 157.42C624.762 156.34 627.762 155.08 630.522 153.64C633.402 152.2 635.442 150.76 636.642 149.32L635.562 117.82Z" fill="white"/>
<path d="M695.193 172L688.713 71.74H720.393L719.853 89.56C722.613 85.96 725.973 82.66 729.933 79.66C733.893 76.54 738.153 74.08 742.713 72.28C747.393 70.36 752.073 69.4 756.753 69.4V95.86C754.353 94.54 751.653 93.58 748.653 92.98C745.773 92.26 742.773 91.9 739.653 91.9C735.933 91.9 732.273 92.38 728.673 93.34C725.073 94.18 722.073 95.44 719.673 97.12L717.333 172H695.193Z" fill="white"/>
<path d="M0.00058148 170.933C0.00058148 167.62 2.68687 164.933 6.00058 164.933H40.6692C45.7199 164.933 48.5107 159.074 45.328 155.152L1.34123 100.954C0.473539 99.8847 -2.42299e-05 98.5497 9.24047e-10 97.1727L0.000475895 70.1298C0.000534208 66.8161 2.68681 64.1299 6.00048 64.1299H89.689C93.9241 64.1299 96.8262 68.399 95.2683 72.3371L88.6142 89.1574C87.7086 91.4465 85.4967 92.9502 83.0349 92.9502H55.3671C50.1402 92.9502 47.4127 99.1691 50.9532 103.014L104.672 161.357C106.592 163.442 106.791 166.586 105.15 168.896L85.3447 196.776C84.2194 198.36 82.3965 199.301 80.4533 199.301H20.8632C19.0073 199.301 17.256 198.442 16.1196 196.975L1.257 177.786C0.442542 176.734 0.00058148 175.442 0.00058148 174.112V170.933Z" fill="white"/>
<path d="M129.557 70.1299C129.557 66.8162 132.243 64.1299 135.557 64.1299H165.421C168.735 64.1299 171.421 66.8162 171.421 70.1299V173.866C171.421 175.346 170.875 176.773 169.887 177.874L152.5 197.454C151.362 198.723 149.686 199.301 147.982 199.301H84.3709C82.0486 199.301 79.9348 197.961 78.9442 195.861L68.3944 173.493C66.5173 169.513 69.4208 164.933 73.8211 164.933H123.557C126.871 164.933 129.557 162.247 129.557 158.933V70.1299Z" fill="white"/>
<path d="M8.92669 8.97638C8.92669 5.50924 11.8568 2.76374 15.3166 2.98905L156.872 12.2076C160.028 12.4131 162.482 15.0326 162.482 18.1949V37.9275C162.482 41.2412 159.796 43.9275 156.482 43.9275H14.9267C11.613 43.9275 8.92669 41.2412 8.92669 37.9275V8.97638Z" fill="white"/>
<path d="M153 196.301C153 201.547 122.331 205.801 84.5 205.801C46.6685 205.801 16 201.547 16 196.301C16 191.054 46.6685 186.801 84.5 186.801C122.331 186.801 153 191.054 153 196.301Z" fill="white"/>
<path d="M161 41.3008C161 46.5475 127.197 50.8008 85.5 50.8008C43.8025 50.8008 10.5 46.5475 10.5 41.3008C10.5 36.0541 43.8025 31.8008 85.5 31.8008C127.197 31.8008 161 36.0541 161 41.3008Z" fill="white"/>
<path d="M159.829 14.0326C159.695 16.2803 151.739 17.9683 137.709 18.7261C123.679 19.4838 104.72 19.2494 84.9946 18.0744C65.2693 16.8993 46.3892 14.8795 32.4987 12.4585C18.6081 10.0374 10.8421 7.41287 10.9055 5.16096C10.9689 2.90905 18.8564 1.2138 32.8367 0.447324C46.817 -0.319151 65.7477 -0.0942147 85.4732 1.07276C105.199 2.23973 124.107 4.25338 138.048 6.67168C151.989 9.08999 159.823 11.7153 159.831 13.9714L85.3679 9.58151L159.829 14.0326Z" fill="white"/>
</svg>
