<svg width="172" height="206" viewBox="0 0 172 206" fill="none" xmlns="http://www.w3.org/2000/svg">
<path d="M0.00058148 170.933C0.00058148 167.62 2.68687 164.933 6.00058 164.933H40.6692C45.7199 164.933 48.5107 159.074 45.328 155.152L1.34123 100.954C0.473539 99.8847 -2.42299e-05 98.5497 9.31323e-10 97.1727L0.000475895 70.1298C0.000534208 66.8161 2.68681 64.1299 6.00048 64.1299H89.689C93.9241 64.1299 96.8262 68.399 95.2683 72.3371L88.6142 89.1574C87.7086 91.4465 85.4967 92.9502 83.0349 92.9502H55.3671C50.1402 92.9502 47.4127 99.1691 50.9532 103.014L104.672 161.357C106.592 163.442 106.791 166.586 105.15 168.896L85.3447 196.776C84.2194 198.36 82.3965 199.301 80.4533 199.301H20.8632C19.0073 199.301 17.256 198.442 16.1196 196.975L1.257 177.786C0.442542 176.734 0.00058148 175.442 0.00058148 174.112V170.933Z" fill="white"/>
<path d="M129.557 70.1299C129.557 66.8162 132.243 64.1299 135.557 64.1299H165.421C168.735 64.1299 171.421 66.8162 171.421 70.1299V173.866C171.421 175.346 170.875 176.773 169.887 177.874L152.5 197.454C151.362 198.723 149.686 199.301 147.982 199.301H84.3709C82.0486 199.301 79.9348 197.961 78.9442 195.861L68.3944 173.493C66.5173 169.513 69.4208 164.933 73.8211 164.933H123.557C126.871 164.933 129.557 162.247 129.557 158.933V70.1299Z" fill="white"/>
<path d="M8.92669 8.97638C8.92669 5.50924 11.8568 2.76374 15.3166 2.98905L156.872 12.2076C160.028 12.4131 162.482 15.0326 162.482 18.1949V37.9275C162.482 41.2412 159.796 43.9275 156.482 43.9275H14.9267C11.613 43.9275 8.92669 41.2412 8.92669 37.9275V8.97638Z" fill="white"/>
<path d="M153 196.301C153 201.547 122.331 205.801 84.5 205.801C46.6685 205.801 16 201.547 16 196.301C16 191.054 46.6685 186.801 84.5 186.801C122.331 186.801 153 191.054 153 196.301Z" fill="white"/>
<path d="M161 41.3008C161 46.5475 127.197 50.8008 85.5 50.8008C43.8025 50.8008 10.5 46.5475 10.5 41.3008C10.5 36.0541 43.8025 31.8008 85.5 31.8008C127.197 31.8008 161 36.0541 161 41.3008Z" fill="white"/>
<path d="M159.829 14.0326C159.695 16.2803 151.739 17.9683 137.709 18.7261C123.679 19.4838 104.72 19.2494 84.9946 18.0744C65.2693 16.8993 46.3892 14.8795 32.4987 12.4585C18.6081 10.0374 10.8421 7.41287 10.9055 5.16096C10.9689 2.90905 18.8564 1.2138 32.8367 0.447324C46.817 -0.319151 65.7477 -0.0942147 85.4732 1.07276C105.199 2.23973 124.107 4.25338 138.048 6.67168C151.989 9.08999 159.823 11.7153 159.831 13.9714L85.3679 9.58151L159.829 14.0326Z" fill="white"/>
</svg>
