<svg width="123" height="167" viewBox="0 0 123 167" fill="none" xmlns="http://www.w3.org/2000/svg">
<path d="M40 90C40 93.9397 40.776 97.8407 42.2836 101.481C43.7913 105.12 46.001 108.427 48.7868 111.213C51.5726 113.999 54.8797 116.209 58.5195 117.716C62.1593 119.224 66.0603 120 70 120C73.9397 120 77.8407 119.224 81.4805 117.716C85.1203 116.209 88.4274 113.999 91.2132 111.213C93.999 108.427 96.2087 105.12 97.7164 101.481C99.224 97.8407 100 93.9397 100 90C100 86.0603 99.224 82.1593 97.7164 78.5195C96.2087 74.8797 93.999 71.5726 91.2132 68.7868C88.4274 66.001 85.1203 63.7913 81.4805 62.2836C77.8407 60.776 73.9397 60 70 60C66.0603 60 62.1593 60.776 58.5195 62.2836C54.8797 63.7913 51.5726 66.001 48.7868 68.7868C46.001 71.5726 43.7913 74.8797 42.2836 78.5195C40.776 82.1593 40 86.0603 40 90Z" stroke="white" stroke-width="6" stroke-linecap="round" stroke-linejoin="round"/>
<path d="M59.8088 78H85.1842L79.2225 83.9618H54L59.8088 78Z" fill="white"/>
<path d="M59.8088 96.0381H85.1842L79.2225 102H54L59.8088 96.0381Z" fill="white"/>
<path d="M79.3748 86.8662H53.9994L59.9611 92.9808H85.1836L79.3748 86.8662Z" fill="white"/>
<path d="M104.1 15.5C104.1 24.0604 84.8481 31 61.0999 31C37.3517 31 18.0999 24.0604 18.0999 15.5C18.0999 6.93959 37.3517 0 61.0999 0C84.8481 0 104.1 6.93959 104.1 15.5Z" fill="white"/>
<path d="M108.512 25.6376C107.146 24.7817 105.408 25.013 104.054 25.8879C95.6505 31.3177 79.3415 35 60.5999 35C42.1588 35 26.0729 31.4348 17.5561 26.1477C16.1965 25.3037 14.4676 25.1128 13.1324 25.9948C9.27773 28.5412 7.0999 31.4335 7.0999 34.5C7.0999 44.7173 31.2765 53 61.0999 53C90.9233 53 115.1 44.7173 115.1 34.5C115.1 31.2891 112.712 28.2693 108.512 25.6376Z" fill="white"/>
<path d="M101.085 98.4188C108.442 89.7605 115.029 82.0078 120.661 82.9832C122.134 83.2381 122.814 84.7943 122.667 86.2811C121.692 96.0935 117.989 133.187 116.602 144C115 156.5 91.2538 167 60.602 167C29.9502 167 7 157.5 5.60196 144C5.59405 143.924 4.48232 132.074 4.47515 131.997L0.209382 86.5C-0.290399 82 0.197266 80 0.703273 78.5C4.69727 70.5 33.4441 77.2086 39.9721 95.3543C46.5 113.5 63.3661 120 72.2888 120C82.748 120 92.447 108.585 101.085 98.4188Z" fill="white"/>
</svg>
